<mxfile host="65bd71144e">
    <diagram id="MQqcLUlsIK5Tfdd7eNyr" name="Page-1">
        <mxGraphModel dx="967" dy="624" grid="1" gridSize="10" guides="1" tooltips="1" connect="1" arrows="1" fold="1" page="1" pageScale="1" pageWidth="827" pageHeight="1169" math="0" shadow="0">
            <root>
                <mxCell id="0"/>
                <mxCell id="1" parent="0"/>
                <mxCell id="34" value="" style="rounded=1;whiteSpace=wrap;html=1;dashed=1;dashPattern=1 1;strokeWidth=2;" parent="1" vertex="1">
                    <mxGeometry x="74" y="530" width="680" height="230" as="geometry"/>
                </mxCell>
                <mxCell id="38" value="" style="rounded=1;whiteSpace=wrap;html=1;dashed=1;strokeWidth=2;" parent="1" vertex="1">
                    <mxGeometry x="428" y="613" width="260" height="90" as="geometry"/>
                </mxCell>
                <mxCell id="37" value="" style="rounded=1;whiteSpace=wrap;html=1;dashed=1;strokeWidth=2;" parent="1" vertex="1">
                    <mxGeometry x="138" y="613" width="236" height="90" as="geometry"/>
                </mxCell>
                <mxCell id="25" value="" style="rounded=1;whiteSpace=wrap;html=1;dashed=1;dashPattern=1 1;strokeWidth=2;" parent="1" vertex="1">
                    <mxGeometry x="74" y="763" width="680" height="230" as="geometry"/>
                </mxCell>
                <mxCell id="3" value="" style="endArrow=none;dashed=1;html=1;" parent="1" edge="1">
                    <mxGeometry width="50" height="50" relative="1" as="geometry">
                        <mxPoint x="85" y="753" as="sourcePoint"/>
                        <mxPoint x="645" y="753" as="targetPoint"/>
                    </mxGeometry>
                </mxCell>
                <mxCell id="5" value="ODS" style="text;html=1;strokeColor=none;fillColor=none;align=center;verticalAlign=middle;whiteSpace=wrap;rounded=0;" parent="1" vertex="1">
                    <mxGeometry x="84" y="949" width="60" height="30" as="geometry"/>
                </mxCell>
                <mxCell id="6" value="DWD" style="text;html=1;strokeColor=none;fillColor=none;align=center;verticalAlign=middle;whiteSpace=wrap;rounded=0;" parent="1" vertex="1">
                    <mxGeometry x="84" y="879" width="60" height="30" as="geometry"/>
                </mxCell>
                <mxCell id="7" value="" style="endArrow=none;dashed=1;html=1;" parent="1" edge="1">
                    <mxGeometry width="50" height="50" relative="1" as="geometry">
                        <mxPoint x="84" y="813" as="sourcePoint"/>
                        <mxPoint x="644" y="813" as="targetPoint"/>
                    </mxGeometry>
                </mxCell>
                <mxCell id="8" value="" style="endArrow=none;dashed=1;html=1;" parent="1" edge="1">
                    <mxGeometry width="50" height="50" relative="1" as="geometry">
                        <mxPoint x="84" y="979" as="sourcePoint"/>
                        <mxPoint x="644" y="979" as="targetPoint"/>
                    </mxGeometry>
                </mxCell>
                <mxCell id="9" value="" style="endArrow=none;dashed=1;html=1;" parent="1" edge="1">
                    <mxGeometry width="50" height="50" relative="1" as="geometry">
                        <mxPoint x="84" y="929" as="sourcePoint"/>
                        <mxPoint x="644" y="929" as="targetPoint"/>
                    </mxGeometry>
                </mxCell>
                <mxCell id="10" value="DWS" style="text;html=1;strokeColor=none;fillColor=none;align=center;verticalAlign=middle;whiteSpace=wrap;rounded=0;" parent="1" vertex="1">
                    <mxGeometry x="84" y="778" width="60" height="30" as="geometry"/>
                </mxCell>
                <mxCell id="11" value="DM" style="text;html=1;strokeColor=none;fillColor=none;align=center;verticalAlign=middle;whiteSpace=wrap;rounded=0;" parent="1" vertex="1">
                    <mxGeometry x="10" y="643" width="60" height="30" as="geometry"/>
                </mxCell>
                <mxCell id="12" value="dwd_etrade_transaction_dt&lt;br&gt;dwd_etrade_refund_dt&lt;br&gt;dwd_etrade_chargeback_dt&lt;br&gt;dwd_etrade_manualreview_dt" style="rounded=0;whiteSpace=wrap;html=1;" parent="1" vertex="1">
                    <mxGeometry x="139" y="859" width="175" height="70" as="geometry"/>
                </mxCell>
                <mxCell id="13" value="&lt;span&gt;dwd_epay_transaction_dt&lt;/span&gt;&lt;br&gt;&lt;span&gt;dwd_epay_refund_dt&lt;/span&gt;&lt;br&gt;&lt;span&gt;dwd_epay_chargeback_dt&lt;/span&gt;&lt;br&gt;&lt;span&gt;dwd_epay_manualreview_dt&lt;/span&gt;" style="rounded=0;whiteSpace=wrap;html=1;" parent="1" vertex="1">
                    <mxGeometry x="333" y="859" width="170" height="70" as="geometry"/>
                </mxCell>
                <mxCell id="14" value="ods_etrade_transaction_dt" style="rounded=0;whiteSpace=wrap;html=1;" parent="1" vertex="1">
                    <mxGeometry x="137" y="935" width="180" height="44" as="geometry"/>
                </mxCell>
                <mxCell id="15" value="ods_epay_transaction_dt" style="rounded=0;whiteSpace=wrap;html=1;" parent="1" vertex="1">
                    <mxGeometry x="334" y="935" width="170" height="44" as="geometry"/>
                </mxCell>
                <mxCell id="16" value="ods_entertainment_transaction_dt" style="rounded=0;whiteSpace=wrap;html=1;" parent="1" vertex="1">
                    <mxGeometry x="524" y="934" width="210" height="46" as="geometry"/>
                </mxCell>
                <mxCell id="17" value="&lt;span&gt;dwd_&lt;/span&gt;entertainment&lt;span&gt;_transaction_dt&lt;/span&gt;&lt;br&gt;&lt;span&gt;dwd_&lt;/span&gt;entertainment&lt;span&gt;_refund_dt&lt;/span&gt;&lt;br&gt;&lt;span&gt;dwd_&lt;/span&gt;entertainment&lt;span&gt;_chargeback_dt&lt;/span&gt;&lt;br&gt;&lt;span&gt;dwd_&lt;/span&gt;entertainment&lt;span&gt;_manualreview_dt&lt;/span&gt;" style="rounded=0;whiteSpace=wrap;html=1;" parent="1" vertex="1">
                    <mxGeometry x="524" y="859" width="210" height="70" as="geometry"/>
                </mxCell>
                <mxCell id="18" value="dws_etrade_transend_dt&lt;br&gt;dws_etrade_order_dt" style="rounded=0;whiteSpace=wrap;html=1;" parent="1" vertex="1">
                    <mxGeometry x="139" y="773" width="175" height="40" as="geometry"/>
                </mxCell>
                <mxCell id="19" value="dws_epay_transend_dt&lt;br&gt;dws_epay_order_dt" style="rounded=0;whiteSpace=wrap;html=1;" parent="1" vertex="1">
                    <mxGeometry x="334" y="773" width="170" height="40" as="geometry"/>
                </mxCell>
                <mxCell id="20" value="dws_entertainment_transend_dt&lt;br&gt;dws_entertainment_order_dt" style="rounded=0;whiteSpace=wrap;html=1;" parent="1" vertex="1">
                    <mxGeometry x="524" y="773" width="210" height="40" as="geometry"/>
                </mxCell>
                <mxCell id="21" value="fdm_etrade_feature_dt" style="rounded=0;whiteSpace=wrap;html=1;" parent="1" vertex="1">
                    <mxGeometry x="139" y="713" width="175" height="40" as="geometry"/>
                </mxCell>
                <mxCell id="22" value="fdm_epay_feature_dt" style="rounded=0;whiteSpace=wrap;html=1;" parent="1" vertex="1">
                    <mxGeometry x="333" y="713" width="171" height="40" as="geometry"/>
                </mxCell>
                <mxCell id="23" value="fdm_entertainment_feature_dt" style="rounded=0;whiteSpace=wrap;html=1;" parent="1" vertex="1">
                    <mxGeometry x="524" y="713" width="210" height="40" as="geometry"/>
                </mxCell>
                <mxCell id="24" value="dwd_offline_chargeback_dt&lt;br&gt;" style="rounded=0;whiteSpace=wrap;html=1;" parent="1" vertex="1">
                    <mxGeometry x="341" y="823" width="150" height="30" as="geometry"/>
                </mxCell>
                <mxCell id="26" value="DW" style="text;html=1;strokeColor=none;fillColor=none;align=center;verticalAlign=middle;whiteSpace=wrap;rounded=0;" parent="1" vertex="1">
                    <mxGeometry x="10" y="863" width="60" height="30" as="geometry"/>
                </mxCell>
                <mxCell id="27" value="FDM" style="text;html=1;strokeColor=none;fillColor=none;align=center;verticalAlign=middle;whiteSpace=wrap;rounded=0;" parent="1" vertex="1">
                    <mxGeometry x="79" y="718" width="60" height="30" as="geometry"/>
                </mxCell>
                <mxCell id="28" value="" style="endArrow=none;dashed=1;html=1;" parent="1" edge="1">
                    <mxGeometry width="50" height="50" relative="1" as="geometry">
                        <mxPoint x="84" y="703" as="sourcePoint"/>
                        <mxPoint x="644" y="703" as="targetPoint"/>
                    </mxGeometry>
                </mxCell>
                <mxCell id="29" value="MDM" style="text;html=1;strokeColor=none;fillColor=none;align=center;verticalAlign=middle;whiteSpace=wrap;rounded=0;" parent="1" vertex="1">
                    <mxGeometry x="77" y="649" width="60" height="30" as="geometry"/>
                </mxCell>
                <mxCell id="30" value="idm_etrade_freq_feature_dt&lt;br&gt;idm_epay_freq_feature_dt&lt;br&gt;idm_entertainment_freq_feature_dt" style="rounded=0;whiteSpace=wrap;html=1;" parent="1" vertex="1">
                    <mxGeometry x="167" y="635" width="200" height="60" as="geometry"/>
                </mxCell>
                <mxCell id="31" value="rdm_etrade_relation_feature_dt&lt;br&gt;rdm_epay_relation_feature_dt&lt;br&gt;rdm_entertainment_relation_feature_dt" style="rounded=0;whiteSpace=wrap;html=1;" parent="1" vertex="1">
                    <mxGeometry x="464" y="635" width="220" height="58" as="geometry"/>
                </mxCell>
                <mxCell id="32" value="ADM" style="text;html=1;strokeColor=none;fillColor=none;align=center;verticalAlign=middle;whiteSpace=wrap;rounded=0;" parent="1" vertex="1">
                    <mxGeometry x="79" y="578" width="60" height="30" as="geometry"/>
                </mxCell>
                <mxCell id="33" value="" style="endArrow=none;dashed=1;html=1;" parent="1" edge="1">
                    <mxGeometry width="50" height="50" relative="1" as="geometry">
                        <mxPoint x="85" y="608" as="sourcePoint"/>
                        <mxPoint x="645" y="608" as="targetPoint"/>
                    </mxGeometry>
                </mxCell>
                <mxCell id="35" value="&lt;span style=&quot;font-family: &amp;#34;helvetica&amp;#34;&quot;&gt;adm_etrade_modelres_dt&lt;/span&gt;" style="rounded=0;whiteSpace=wrap;html=1;" parent="1" vertex="1">
                    <mxGeometry x="137" y="568" width="175" height="40" as="geometry"/>
                </mxCell>
                <mxCell id="36" value="IDM" style="text;html=1;strokeColor=none;fillColor=none;align=center;verticalAlign=middle;whiteSpace=wrap;rounded=0;" parent="1" vertex="1">
                    <mxGeometry x="126" y="611" width="60" height="30" as="geometry"/>
                </mxCell>
                <mxCell id="39" value="RDM" style="text;html=1;strokeColor=none;fillColor=none;align=center;verticalAlign=middle;whiteSpace=wrap;rounded=0;" parent="1" vertex="1">
                    <mxGeometry x="419" y="613" width="60" height="30" as="geometry"/>
                </mxCell>
                <mxCell id="40" value="dm_epay_modelres_dt" style="rounded=0;whiteSpace=wrap;html=1;" parent="1" vertex="1">
                    <mxGeometry x="334" y="568" width="171" height="40" as="geometry"/>
                </mxCell>
                <mxCell id="41" value="dm_entertainment_modelres_dt" style="rounded=0;whiteSpace=wrap;html=1;" parent="1" vertex="1">
                    <mxGeometry x="524" y="568" width="210" height="40" as="geometry"/>
                </mxCell>
                <mxCell id="42" value="BI" style="text;html=1;strokeColor=none;fillColor=none;align=center;verticalAlign=middle;whiteSpace=wrap;rounded=0;" vertex="1" parent="1">
                    <mxGeometry x="10" y="440" width="60" height="30" as="geometry"/>
                </mxCell>
                <mxCell id="43" value="" style="rounded=1;whiteSpace=wrap;html=1;dashed=1;dashPattern=1 1;strokeWidth=2;" vertex="1" parent="1">
                    <mxGeometry x="73" y="390" width="680" height="130" as="geometry"/>
                </mxCell>
                <mxCell id="44" value="" style="endArrow=none;dashed=1;html=1;" edge="1" parent="1">
                    <mxGeometry width="50" height="50" relative="1" as="geometry">
                        <mxPoint x="84" y="508" as="sourcePoint"/>
                        <mxPoint x="644" y="508" as="targetPoint"/>
                    </mxGeometry>
                </mxCell>
                <mxCell id="46" value="" style="rounded=1;whiteSpace=wrap;html=1;dashed=1;strokeWidth=2;" vertex="1" parent="1">
                    <mxGeometry x="422" y="418" width="236" height="90" as="geometry"/>
                </mxCell>
                <mxCell id="47" value="模型监控" style="text;html=1;strokeColor=none;fillColor=none;align=center;verticalAlign=middle;whiteSpace=wrap;rounded=0;" vertex="1" parent="1">
                    <mxGeometry x="422" y="416" width="60" height="30" as="geometry"/>
                </mxCell>
                <mxCell id="48" value="bim_etrade_model_dt&lt;br&gt;bim_epay_model_dt&lt;br&gt;bim_entertainment_model_dt" style="rounded=0;whiteSpace=wrap;html=1;" vertex="1" parent="1">
                    <mxGeometry x="451" y="440" width="200" height="60" as="geometry"/>
                </mxCell>
                <mxCell id="50" value="" style="rounded=1;whiteSpace=wrap;html=1;dashed=1;strokeWidth=2;" vertex="1" parent="1">
                    <mxGeometry x="138" y="418" width="236" height="90" as="geometry"/>
                </mxCell>
                <mxCell id="51" value="业务指标" style="text;html=1;strokeColor=none;fillColor=none;align=center;verticalAlign=middle;whiteSpace=wrap;rounded=0;" vertex="1" parent="1">
                    <mxGeometry x="137" y="416" width="60" height="30" as="geometry"/>
                </mxCell>
                <mxCell id="52" value="bii_etrade_stat_dt&lt;br&gt;bii_epay_stat_dt&lt;br&gt;bii_entertainment_stat_dt" style="rounded=0;whiteSpace=wrap;html=1;" vertex="1" parent="1">
                    <mxGeometry x="167" y="440" width="200" height="60" as="geometry"/>
                </mxCell>
            </root>
        </mxGraphModel>
    </diagram>
</mxfile>